<svg width="356" height="432" viewBox="0 0 356 432" fill="none" xmlns="http://www.w3.org/2000/svg">
<path d="M174.703 338.187C174.698 325.604 178.422 314.255 184.328 306.135C187.281 302.078 190.776 298.828 194.609 296.604C198.443 294.38 202.604 293.172 206.984 293.172C207.964 293.172 208.755 292.375 208.755 291.391C208.755 290.411 207.964 289.615 206.984 289.615C201.943 289.615 197.141 291.021 192.828 293.531C186.349 297.297 180.943 303.505 177.146 311.234C173.349 318.958 171.151 328.224 171.151 338.187C171.151 339.172 171.948 339.963 172.927 339.963C173.906 339.963 174.703 339.172 174.703 338.187Z" fill="#5A231C"/>
<path d="M164.557 347.578C164.557 353.885 167.979 358.995 172.208 358.995C176.422 358.995 179.854 353.885 179.854 347.578C179.854 341.281 176.422 336.172 172.208 336.172C167.979 336.172 164.557 341.281 164.557 347.578Z" fill="#A0A4A3"/>
<path d="M164.557 347.578H162.781C162.786 351.052 163.708 354.229 165.323 356.641C166.13 357.849 167.12 358.865 168.281 359.604C169.437 360.338 170.786 360.776 172.208 360.771C173.62 360.776 174.964 360.338 176.125 359.604C177.87 358.495 179.219 356.766 180.156 354.698C181.094 352.62 181.625 350.182 181.625 347.578C181.625 344.109 180.693 340.937 179.078 338.521C178.276 337.318 177.286 336.302 176.125 335.562C174.964 334.828 173.62 334.396 172.208 334.396C170.786 334.396 169.443 334.828 168.281 335.562C166.536 336.672 165.182 338.396 164.245 340.463C163.307 342.542 162.781 344.974 162.781 347.578H166.333C166.328 344.75 167.115 342.219 168.271 340.505C168.844 339.641 169.505 338.99 170.177 338.573C170.849 338.151 171.51 337.948 172.208 337.948C172.896 337.948 173.563 338.151 174.229 338.573C175.234 339.198 176.214 340.365 176.927 341.937C177.641 343.505 178.078 345.458 178.078 347.578C178.078 350.406 177.292 352.943 176.135 354.667C175.557 355.526 174.896 356.177 174.229 356.599C173.563 357.021 172.896 357.219 172.208 357.219C171.51 357.219 170.849 357.016 170.177 356.599C169.172 355.969 168.188 354.802 167.484 353.229C166.766 351.656 166.333 349.698 166.333 347.578H164.557Z" fill="#5A231C"/>
<path d="M262.703 360.719V422.26C262.703 423.24 263.495 424.036 264.479 424.036C265.464 424.036 266.25 423.24 266.25 422.26V360.719C266.25 359.734 265.464 358.943 264.479 358.943C263.495 358.943 262.703 359.734 262.703 360.719Z" fill="#5A231C"/>
<path d="M274.87 427.948C268.578 427.948 263.458 424.516 263.458 420.276C263.458 416.057 268.578 412.63 274.87 412.63C281.162 412.63 286.266 416.057 286.266 420.276C286.266 424.516 281.162 427.948 274.87 427.948Z" fill="#A0A4A3"/>
<path d="M274.87 427.948V426.167C272.047 426.172 269.51 425.385 267.797 424.224C266.938 423.646 266.287 422.984 265.859 422.312C265.438 421.641 265.24 420.979 265.234 420.276C265.24 419.588 265.438 418.922 265.859 418.25C266.49 417.25 267.651 416.266 269.229 415.552C270.797 414.838 272.75 414.401 274.87 414.401C277.693 414.401 280.224 415.187 281.932 416.344C282.792 416.922 283.443 417.578 283.865 418.25C284.287 418.922 284.484 419.583 284.49 420.276C284.484 420.979 284.287 421.641 283.865 422.318C283.234 423.323 282.078 424.307 280.505 425.021C278.938 425.734 276.984 426.167 274.87 426.167V429.724C278.339 429.719 281.505 428.792 283.917 427.177C285.12 426.37 286.135 425.38 286.87 424.213C287.599 423.052 288.042 421.698 288.037 420.276C288.042 418.859 287.599 417.516 286.87 416.354C285.766 414.609 284.037 413.255 281.974 412.312C279.901 411.38 277.474 410.849 274.87 410.849C271.401 410.849 268.229 411.781 265.818 413.391C264.615 414.203 263.594 415.193 262.859 416.354C262.125 417.51 261.682 418.859 261.682 420.276C261.682 421.698 262.125 423.052 262.859 424.213C263.964 425.958 265.693 427.318 267.766 428.255C269.833 429.198 272.266 429.724 274.87 429.724V427.948Z" fill="#5A231C"/>
<path d="M251.307 360.719V422.26C251.307 423.24 252.104 424.036 253.083 424.036C254.063 424.036 254.859 423.24 254.859 422.26V360.719C254.859 359.734 254.063 358.943 253.083 358.943C252.104 358.943 251.307 359.734 251.307 360.719Z" fill="#5A231C"/>
<path d="M242.688 427.948C248.99 427.948 254.083 424.516 254.083 420.276C254.083 416.057 248.99 412.63 242.688 412.63C236.391 412.63 231.292 416.057 231.292 420.276C231.292 424.516 236.391 427.948 242.688 427.948Z" fill="#A0A4A3"/>
<path d="M242.688 427.948V429.724C246.161 429.719 249.328 428.792 251.74 427.177C252.943 426.37 253.958 425.38 254.693 424.213C255.427 423.052 255.865 421.698 255.859 420.276C255.865 418.859 255.427 417.516 254.693 416.354C253.589 414.609 251.859 413.255 249.797 412.312C247.724 411.38 245.292 410.849 242.688 410.849C239.219 410.849 236.047 411.781 233.641 413.396C232.437 414.203 231.422 415.193 230.682 416.354C229.953 417.516 229.516 418.859 229.516 420.276C229.516 421.698 229.953 423.052 230.682 424.213C231.786 425.958 233.516 427.312 235.578 428.255C237.651 429.198 240.083 429.724 242.688 429.724V426.167C239.859 426.172 237.333 425.385 235.615 424.224C234.755 423.651 234.109 422.99 233.688 422.318C233.271 421.641 233.068 420.979 233.068 420.276C233.068 419.583 233.271 418.922 233.688 418.25C234.313 417.245 235.479 416.26 237.047 415.552C238.615 414.838 240.568 414.401 242.688 414.401C245.516 414.401 248.047 415.187 249.76 416.344C250.62 416.922 251.271 417.578 251.693 418.25C252.109 418.922 252.307 419.583 252.307 420.276C252.307 420.979 252.109 421.641 251.693 422.318C251.063 423.323 249.901 424.307 248.328 425.021C246.76 425.734 244.807 426.167 242.688 426.167V427.948Z" fill="#5A231C"/>
<path d="M210.318 361.443C202.891 361.443 196.854 355.396 196.854 347.964V224.734C196.854 217.302 202.891 211.255 210.318 211.255H294.24C294.755 211.255 295.25 211.484 295.589 211.875L314.37 233.875C314.646 234.198 314.792 234.604 314.792 235.031V347.964C314.792 355.396 308.755 361.443 301.323 361.443H210.318Z" fill="white"/>
<path d="M294.24 209.479H210.318C201.911 209.479 195.078 216.318 195.078 224.734V347.964C195.078 356.375 201.911 363.219 210.318 363.219H301.323C309.734 363.219 316.568 356.375 316.568 347.964V235.031C316.568 234.182 316.266 233.365 315.714 232.719L296.938 210.724C296.266 209.932 295.276 209.479 294.24 209.479ZM294.24 213.031L313.016 235.031V347.964C313.016 354.427 307.781 359.667 301.323 359.667H210.318C203.859 359.667 198.63 354.427 198.63 347.964V224.734C198.63 218.266 203.859 213.031 210.318 213.031H294.24Z" fill="#5A231C"/>
<path d="M294.24 213.031H279.5C289.448 226.464 295.396 242.979 295.396 260.693C295.396 304.714 258.698 341.448 214.724 341.448C209.219 341.448 203.833 340.88 198.63 339.781V347.964C198.63 354.427 203.86 359.667 210.318 359.667H301.323C307.781 359.667 313.016 354.427 313.016 347.964V235.031L294.24 213.031Z" fill="#BDBCBC"/>
<path d="M294.365 236.844C293.385 236.844 292.589 236.047 292.589 235.068V213.078C292.589 212.333 293.057 211.667 293.755 211.411C293.953 211.333 294.162 211.302 294.365 211.302C294.875 211.302 295.37 211.521 295.719 211.922L314.469 233.911C314.917 234.437 315.016 235.177 314.729 235.807C314.438 236.443 313.813 236.844 313.12 236.844H294.365Z" fill="white"/>
<path d="M294.365 209.526C293.958 209.526 293.536 209.594 293.141 209.745C291.74 210.255 290.812 211.589 290.812 213.078V235.068C290.812 237.031 292.401 238.62 294.365 238.62H313.12C314.505 238.62 315.76 237.818 316.344 236.552C316.922 235.292 316.714 233.813 315.818 232.755L297.068 210.771C296.38 209.958 295.385 209.526 294.365 209.526ZM294.365 213.078L313.12 235.068H294.365V213.078Z" fill="#5A231C"/>
<path d="M222.458 269.797L239.583 286.943C240.276 287.635 241.401 287.635 242.094 286.943C242.787 286.245 242.787 285.12 242.094 284.427L224.969 267.286C224.276 266.594 223.156 266.594 222.458 267.286C221.766 267.979 221.766 269.104 222.458 269.797Z" fill="#5A231C"/>
<path d="M239.583 267.286L222.458 284.427C221.766 285.12 221.766 286.245 222.458 286.943C223.156 287.635 224.276 287.635 224.969 286.943L242.094 269.797C242.787 269.104 242.787 267.979 242.094 267.286C241.401 266.594 240.276 266.594 239.583 267.286Z" fill="#5A231C"/>
<path d="M269.542 269.797L286.667 286.943C287.359 287.635 288.484 287.635 289.177 286.943C289.87 286.245 289.87 285.12 289.177 284.427L272.052 267.286C271.359 266.594 270.234 266.594 269.542 267.286C268.849 267.979 268.849 269.104 269.542 269.797Z" fill="#5A231C"/>
<path d="M286.667 267.286L269.542 284.427C268.849 285.12 268.849 286.245 269.542 286.943C270.234 287.635 271.359 287.635 272.052 286.943L289.177 269.797C289.87 269.104 289.87 267.979 289.177 267.286C288.484 266.594 287.359 266.594 286.667 267.286Z" fill="#5A231C"/>
<path d="M225.141 312.411H286.495C287.474 312.411 288.271 311.615 288.271 310.635C288.271 309.656 287.474 308.859 286.495 308.859H225.141C224.162 308.859 223.365 309.656 223.365 310.635C223.365 311.615 224.162 312.411 225.141 312.411Z" fill="#5A231C"/>
<path d="M256.875 310.635V321.787C256.875 328.568 262.365 334.063 269.135 334.063C275.911 334.063 281.401 328.568 281.401 321.787V310.635H256.875Z" fill="#C42E27"/>
<path d="M256.875 310.635H255.104V321.786C255.104 329.547 261.385 335.833 269.135 335.839C276.896 335.833 283.177 329.547 283.177 321.786V310.635C283.177 310.161 282.99 309.714 282.656 309.38C282.323 309.042 281.875 308.859 281.401 308.859H256.875C256.412 308.859 255.953 309.047 255.62 309.38C255.292 309.708 255.104 310.167 255.104 310.635H256.875V312.411H279.625V321.786C279.625 324.693 278.458 327.302 276.557 329.214C274.651 331.115 272.042 332.281 269.135 332.286C266.24 332.281 263.625 331.115 261.724 329.214C259.823 327.302 258.651 324.693 258.651 321.786V310.635H256.875Z" fill="#5A231C"/>
<path d="M267.359 311.271V325.354C267.359 326.338 268.156 327.135 269.135 327.135C270.115 327.135 270.911 326.338 270.911 325.354V311.271C270.911 310.286 270.115 309.49 269.135 309.49C268.156 309.49 267.359 310.286 267.359 311.271Z" fill="#5A231C"/>
<path d="M346.406 338.187C346.401 324.984 343.417 312.99 337.885 304.146C335.12 299.729 331.703 296.099 327.682 293.562C323.672 291.026 319.047 289.609 314.01 289.615C313.031 289.615 312.234 290.411 312.234 291.391C312.234 292.375 313.031 293.172 314.01 293.172C318.385 293.172 322.297 294.375 325.792 296.573C331.021 299.865 335.307 305.474 338.266 312.693C341.229 319.906 342.859 328.693 342.859 338.187C342.859 339.172 343.651 339.963 344.635 339.963C345.609 339.963 346.411 339.172 346.411 338.187" fill="#5A231C"/>
<path d="M353.005 347.578C353.005 353.885 349.583 358.995 345.349 358.995C341.12 358.995 337.708 353.885 337.708 347.578C337.708 341.281 341.12 336.172 345.349 336.172C349.583 336.172 353.005 341.281 353.005 347.578Z" fill="#A0A4A3"/>
<mask id="mask0_85_126" style="mask-type:luminance" maskUnits="userSpaceOnUse" x="335" y="333" width="21" height="29">
<path d="M335.557 333.214H355.224V361.214H335.557V333.214Z" fill="white"/>
</mask>
<g mask="url(#mask0_85_126)">
<path d="M353.005 347.578H351.234C351.24 350.406 350.453 352.943 349.292 354.667C348.714 355.521 348.052 356.172 347.385 356.594C346.714 357.016 346.047 357.219 345.349 357.219C344.656 357.219 343.99 357.016 343.318 356.599C342.318 355.969 341.333 354.802 340.63 353.229C339.917 351.661 339.479 349.703 339.479 347.578C339.479 344.75 340.26 342.219 341.412 340.505C341.99 339.641 342.646 338.99 343.318 338.573C343.99 338.151 344.656 337.948 345.349 337.948C346.047 337.948 346.714 338.151 347.385 338.573C348.391 339.198 349.375 340.365 350.083 341.938C350.797 343.505 351.234 345.458 351.234 347.578H354.781C354.776 344.109 353.854 340.932 352.24 338.521C351.427 337.318 350.438 336.302 349.276 335.563C348.115 334.828 346.766 334.396 345.349 334.396C343.932 334.396 342.583 334.828 341.422 335.563C339.682 336.672 338.328 338.401 337.391 340.469C336.458 342.542 335.932 344.974 335.932 347.578C335.938 351.052 336.854 354.224 338.469 356.641C339.276 357.849 340.26 358.865 341.422 359.604C342.583 360.339 343.932 360.776 345.349 360.771C346.766 360.776 348.115 360.339 349.276 359.604C351.021 358.495 352.375 356.766 353.318 354.698C354.255 352.625 354.781 350.182 354.781 347.578H353.005Z" fill="#5A231C"/>
</g>
<path d="M94.7241 267.219V161.464C94.7241 150 104.011 140.682 115.505 140.682H138.62C150.089 140.682 159.396 150 159.396 161.464V267.219H94.7241Z" fill="#FBC508"/>
<path d="M94.724 267.219H96.5001V161.464C96.5001 156.219 98.6199 151.479 102.063 148.031C105.505 144.589 110.245 142.458 115.505 142.458H138.62C143.87 142.458 148.609 144.583 152.052 148.031C155.495 151.479 157.615 156.224 157.62 161.464V265.438H94.724V267.219V268.995H161.167V161.464C161.167 149.016 151.068 138.906 138.62 138.906H115.505C103.031 138.906 92.948 149.021 92.948 161.464V268.995H94.724V267.219Z" fill="#4B1615"/>
<path d="M133.693 429.906C133.693 428.505 133.719 419.812 133.719 418.865C133.719 417.396 133.031 413.646 137.943 413.646H155.099C162.516 413.646 168.537 419.687 168.537 427.13C168.537 428.073 168.459 429.01 168.255 429.906H133.693Z" fill="#565353"/>
<mask id="mask1_85_126" style="mask-type:luminance" maskUnits="userSpaceOnUse" x="131" y="410" width="41" height="22">
<path d="M131.557 410.547H171.557V431.599H131.557V410.547Z" fill="white"/>
</mask>
<g mask="url(#mask1_85_126)">
<path d="M133.693 429.906H135.464C135.464 428.51 135.495 419.818 135.495 418.865C135.49 418.432 135.458 418.042 135.458 417.646C135.458 417.292 135.485 416.953 135.542 416.677C135.589 416.474 135.651 416.307 135.724 416.182C135.833 415.995 135.938 415.87 136.235 415.719C136.521 415.573 137.057 415.422 137.943 415.422H155.099C158.318 415.422 161.224 416.734 163.344 418.854C165.458 420.979 166.761 423.896 166.761 427.13C166.761 427.969 166.693 428.781 166.521 429.516L168.255 429.906V428.13H133.693V429.906V431.687H169.662L169.985 430.307C170.224 429.24 170.313 428.167 170.313 427.13C170.313 418.714 163.505 411.87 155.099 411.87H137.943C136.807 411.87 135.823 412.036 134.969 412.391C134.339 412.656 133.781 413.031 133.344 413.479C132.688 414.156 132.323 414.958 132.13 415.682C131.943 416.411 131.912 417.083 131.912 417.646C131.912 418.193 131.943 418.656 131.943 418.865C131.943 419.807 131.917 428.495 131.917 429.906V431.687H133.693V429.906Z" fill="#4B1615"/>
</g>
<path d="M108.219 142.016V168.052H145.578V141.911C153.625 144.776 159.396 152.453 159.396 161.464L159.344 413.818H135.042V288.953H119.13V413.818H94.8335L94.7241 161.464C94.7241 152.552 100.344 144.984 108.219 142.016Z" fill="#0F85D1"/>
<path d="M108.219 142.016H106.443V169.828H147.354V141.911H145.578L144.984 143.589C152.344 146.214 157.62 153.234 157.62 161.464L157.563 412.042H136.813V287.177H117.359V412.042H96.6042L96.5001 161.464C96.4949 153.318 101.635 146.401 108.849 143.682L108.219 142.016L107.594 140.354C99.0522 143.573 92.948 151.786 92.948 161.464L93.0574 415.594H120.906V290.729H133.266V415.594H161.109L161.172 161.464C161.167 151.677 154.906 143.349 146.177 140.24L143.802 139.396V166.276H109.995V139.448L107.594 140.354L108.219 142.016Z" fill="#4B1615"/>
<path d="M91.1562 429.906C91.1562 428.505 91.1927 419.812 91.1927 418.865C91.1927 417.396 90.5104 413.646 95.401 413.646H112.547C119.995 413.646 126.016 419.687 126.016 427.13C126.016 428.073 125.911 429.01 125.729 429.906H91.1562Z" fill="#565353"/>
<mask id="mask2_85_126" style="mask-type:luminance" maskUnits="userSpaceOnUse" x="88" y="410" width="41" height="22">
<path d="M88.8906 410.547H128.891V431.599H88.8906V410.547Z" fill="white"/>
</mask>
<g mask="url(#mask2_85_126)">
<path d="M91.1562 429.906H92.9322C92.9322 428.516 92.9687 419.823 92.9687 418.865C92.9687 418.432 92.9374 418.036 92.9374 417.641C92.9374 417.281 92.9583 416.948 93.0155 416.677C93.0624 416.469 93.1249 416.307 93.1926 416.182C93.3072 415.995 93.4114 415.87 93.703 415.719C93.9947 415.573 94.5208 415.422 95.401 415.422H112.547C115.786 415.422 118.698 416.734 120.818 418.854C122.937 420.979 124.24 423.896 124.24 427.13C124.24 427.927 124.146 428.76 123.99 429.573L125.729 429.906V428.13H91.1562V429.906V431.687H127.193L127.474 430.25C127.667 429.26 127.792 428.208 127.792 427.13C127.792 418.708 120.979 411.87 112.547 411.87H95.401C94.2708 411.87 93.2916 412.036 92.4426 412.391C91.8072 412.656 91.2499 413.031 90.8176 413.479C90.1614 414.151 89.7916 414.953 89.6041 415.677C89.4166 416.406 89.3853 417.078 89.3853 417.641C89.3853 418.193 89.4166 418.656 89.4166 418.865C89.4166 419.802 89.3801 428.495 89.3801 429.906V431.687H91.1562V429.906Z" fill="#4B1615"/>
</g>
<path d="M112.167 204.865H144.974V181.443H112.167V204.865Z" fill="#42C2F3"/>
<path d="M112.167 204.865V206.641H146.75V179.667H110.391V206.641H112.167V204.865H113.943V183.219H143.198V203.089H112.167V204.865Z" fill="#4B1615"/>
<path d="M115.464 143.948C115.464 150.813 121.026 156.349 127.875 156.349C134.703 156.349 140.234 150.813 140.234 143.948V118.651C140.234 111.797 134.703 106.234 127.875 106.234C121.026 106.234 115.464 111.797 115.464 118.651V143.948Z" fill="#F89B70"/>
<path d="M115.464 143.948H113.688C113.682 147.87 115.276 151.427 117.844 153.984C120.406 156.547 123.964 158.13 127.875 158.13C131.771 158.13 135.318 156.542 137.87 153.984C140.427 151.422 142.01 147.865 142.01 143.948V118.651C142.01 110.818 135.688 104.458 127.875 104.458C120.042 104.458 113.688 110.807 113.688 118.651V143.948H117.234V118.651C117.234 115.708 118.427 113.057 120.354 111.13C122.286 109.198 124.932 108.016 127.875 108.016C130.802 108.016 133.438 109.198 135.359 111.13C137.276 113.057 138.458 115.703 138.458 118.651V143.948C138.458 149.833 133.724 154.573 127.875 154.573C124.927 154.573 122.281 153.391 120.354 151.464C118.427 149.542 117.234 146.896 117.234 143.948H115.464Z" fill="#4B1615"/>
<path d="M80.8752 82.3385C81.771 109.052 104.094 129.974 130.813 129.073C157.49 128.172 178.386 105.807 177.495 79.0885L176.688 54.8906C175.792 28.1718 153.438 7.26037 126.75 8.13537C100.052 9.05204 79.1669 31.4218 80.0627 58.1458L80.8752 82.3385Z" fill="#F8A57B"/>
<path d="M80.8752 82.3385L79.0991 82.401C80.0106 109.516 102.219 130.875 129.156 130.875C129.724 130.875 130.297 130.865 130.875 130.849C157.964 129.938 179.297 107.677 179.297 80.7396C179.297 80.1667 179.287 79.599 179.271 79.0365V79.0313L178.464 54.8281C177.552 27.6927 155.292 6.32812 128.365 6.32812C127.807 6.32812 127.25 6.33854 126.693 6.35937C99.5887 7.29167 78.2554 29.5469 78.2554 56.4948C78.2554 57.0625 78.2658 57.6354 78.2866 58.2083V58.2031L79.0991 82.401L80.8752 82.3385L82.6512 82.2813L81.8335 58.0833V58.0781C81.8179 57.5573 81.8075 57.026 81.8075 56.4948C81.8075 31.4583 101.62 10.776 126.813 9.91146C127.328 9.89583 127.844 9.88542 128.365 9.88542C153.38 9.88542 174.068 29.7344 174.912 54.9531L175.724 79.1458C175.74 79.6771 175.745 80.2083 175.745 80.7396C175.745 105.766 155.927 126.453 130.755 127.292C130.219 127.313 129.682 127.323 129.156 127.323C104.13 127.323 83.4897 107.479 82.6512 82.2813L80.8752 82.3385Z" fill="#4B1615"/>
<path d="M144.354 88.8073C144.459 91.7344 146.922 94.0677 149.86 93.9583C152.792 93.8594 155.099 91.3958 154.995 88.4635C154.901 85.5156 152.432 83.2031 149.49 83.3021C146.573 83.3958 144.255 85.8698 144.354 88.8073Z" fill="#4B1615"/>
<path d="M123.25 116.198C123.354 119.125 125.823 121.453 128.755 121.349C131.688 121.25 133.995 118.786 133.891 115.854C133.797 112.911 131.328 110.594 128.391 110.693C125.469 110.792 123.156 113.26 123.25 116.198Z" fill="#4B1615"/>
<path d="M102.089 90.2187C102.172 93.1562 104.656 95.4844 107.594 95.375C110.531 95.2708 112.833 92.7864 112.729 89.8802C112.625 86.9271 110.172 84.6146 107.24 84.7239C104.307 84.8281 101.974 87.3021 102.089 90.2187Z" fill="#4B1615"/>
<path d="M125.787 105.906L132.281 105.698C132.724 105.693 133.099 105.5 133.344 105.161C133.599 104.807 133.651 104.396 133.521 103.995L130.339 93.0573C130.104 92.3229 129.38 91.9323 128.677 92.1458C127.969 92.349 127.557 93.1042 127.75 93.8177L130.49 103.078L125.703 103.25C124.964 103.26 124.375 103.896 124.391 104.62C124.417 105.359 125.047 105.943 125.787 105.906Z" fill="#4B1615"/>
<path d="M244.745 199.911C245.307 201.63 243.677 203.641 240.76 205.266C246.953 207.906 250.818 212.818 249.766 217.401C248.505 222.906 240.844 224.953 232.406 223.021C223.984 221.083 218.38 214.214 219.641 208.703C220.896 203.177 224.391 199.99 230.844 198.448C237.307 196.885 243.88 197.229 244.745 199.911Z" fill="#F8A57B"/>
<path d="M244.745 199.911L243.057 200.469L243.078 200.615C243.073 200.698 243.057 200.828 242.958 201.042C242.818 201.349 242.49 201.797 241.974 202.271C241.453 202.74 240.75 203.24 239.896 203.719L236.734 205.484L240.068 206.901C242.604 207.984 244.682 209.474 246.073 211.078C247.474 212.693 248.161 214.359 248.156 215.88C248.156 216.26 248.115 216.635 248.031 217.01V217.005C247.859 217.771 247.531 218.417 247.047 219.005C246.318 219.88 245.203 220.625 243.729 221.146C242.255 221.667 240.443 221.958 238.432 221.958C236.672 221.958 234.76 221.74 232.802 221.286C229.323 220.49 226.365 218.76 224.339 216.687C223.323 215.656 222.536 214.547 222.01 213.448C221.49 212.354 221.234 211.281 221.234 210.292C221.234 209.875 221.281 209.479 221.37 209.099V209.094C221.948 206.599 222.948 204.807 224.49 203.391C226.036 201.974 228.214 200.901 231.255 200.172C233.661 199.589 236.099 199.292 238.146 199.292C239.729 199.286 241.089 199.479 241.958 199.786C242.396 199.932 242.698 200.104 242.859 200.234C243.021 200.37 243.036 200.427 243.052 200.453L243.057 200.469L244.745 199.911L246.427 199.37C246.182 198.578 245.672 197.932 245.083 197.464C244.198 196.76 243.151 196.375 241.99 196.109C240.828 195.849 239.531 195.74 238.146 195.74C235.76 195.74 233.089 196.078 230.427 196.714H230.432C227.01 197.536 224.224 198.823 222.094 200.766C219.964 202.703 218.594 205.271 217.906 208.302V208.297C217.755 208.958 217.688 209.625 217.688 210.292C217.688 211.891 218.099 213.479 218.807 214.979C219.88 217.229 221.635 219.302 223.891 221.005C226.146 222.703 228.901 224.036 232.01 224.75C234.219 225.255 236.38 225.51 238.432 225.51C241.552 225.505 244.417 224.932 246.76 223.687C247.922 223.068 248.953 222.266 249.776 221.276C250.599 220.286 251.198 219.104 251.495 217.797C251.641 217.161 251.708 216.516 251.708 215.88C251.703 213.281 250.563 210.828 248.75 208.745C246.932 206.661 244.422 204.901 241.453 203.635L240.76 205.266L241.625 206.823C243.016 206.042 244.193 205.167 245.078 204.172C245.526 203.672 245.896 203.135 246.177 202.542C246.453 201.953 246.63 201.297 246.625 200.615C246.63 200.198 246.563 199.766 246.427 199.359V199.37L244.745 199.911Z" fill="#4B1615"/>
<path d="M159.13 205.432L139.193 158.437C136.88 152.969 139.422 146.651 144.901 144.323C150.365 141.984 156.672 144.542 159.005 150.01L177.203 192.984L224.656 198.031L220.984 218.854L168.547 213.776C163.797 213.312 160.12 209.833 159.13 205.432Z" fill="#FBC508"/>
<path d="M159.13 205.432L160.76 204.74L140.828 157.745C140.344 156.599 140.109 155.411 140.109 154.24C140.115 150.745 142.156 147.417 145.594 145.958C146.75 145.469 147.938 145.234 149.104 145.234C152.594 145.234 155.911 147.286 157.37 150.708V150.703L175.979 194.641L222.583 199.594L219.521 216.927L168.714 212.005C166.729 211.812 164.984 210.995 163.62 209.76C162.255 208.526 161.276 206.885 160.865 205.042L160.823 204.891L160.76 204.74L159.13 205.432L157.396 205.828C157.979 208.391 159.339 210.677 161.24 212.401C163.146 214.12 165.615 215.271 168.375 215.542L222.448 220.781L226.734 196.464L178.432 191.328L160.635 149.318V149.312C158.599 144.547 153.974 141.677 149.104 141.682C147.464 141.682 145.797 142.005 144.203 142.693V142.687C139.427 144.724 136.562 149.365 136.562 154.24C136.562 155.875 136.885 157.542 137.557 159.135L157.49 206.13L159.13 205.432Z" fill="#4B1615"/>
<path d="M6.97396 197.76C6.40625 199.479 8.03125 201.484 10.9479 203.12C4.76042 205.755 0.901042 210.661 1.94271 215.25C3.20313 220.755 10.8646 222.802 19.3073 220.87C27.7292 218.938 33.3333 212.063 32.0729 206.552C30.8073 201.021 27.3229 197.839 20.8698 196.297C14.4063 194.734 7.82813 195.078 6.97396 197.76Z" fill="#F8A57B"/>
<path d="M6.97396 197.76L5.29167 197.198C5.15104 197.609 5.08333 198.042 5.08854 198.458C5.08333 199.151 5.26042 199.807 5.53646 200.396C5.95313 201.281 6.58333 202.042 7.34896 202.745C8.11979 203.443 9.04167 204.083 10.0833 204.672L10.9479 203.12L10.25 201.484C7.28646 202.75 4.77604 204.51 2.95833 206.594C1.15104 208.672 0.00520933 211.13 0 213.729C0 214.365 0.067708 215.01 0.213543 215.651V215.646C0.510417 216.953 1.11458 218.135 1.9375 219.125C3.17188 220.609 4.86458 221.661 6.79688 222.344C8.73958 223.031 10.9375 223.354 13.2813 223.359C15.3281 223.359 17.4948 223.104 19.7031 222.599C23.8438 221.646 27.3698 219.604 29.901 217.036C31.1667 215.755 32.1875 214.333 32.901 212.833C33.6146 211.328 34.0208 209.745 34.026 208.146C34.026 207.474 33.9531 206.807 33.8073 206.156C33.1198 203.12 31.75 200.557 29.6146 198.62C27.4896 196.672 24.7031 195.385 21.2813 194.568H21.2865C18.625 193.927 15.9531 193.589 13.5677 193.589C11.7135 193.594 10.0365 193.781 8.59896 194.271C7.88021 194.516 7.21354 194.844 6.625 195.318C6.04167 195.781 5.53125 196.432 5.28125 197.224L6.97396 197.76L8.66667 198.302C8.67708 198.276 8.6875 198.219 8.84896 198.083C9.08854 197.885 9.66667 197.604 10.4948 197.427C11.3177 197.245 12.375 197.141 13.5677 197.141C15.6146 197.141 18.0469 197.443 20.4531 198.021L20.4583 198.026C23.4896 198.745 25.6719 199.828 27.224 201.24C28.7656 202.661 29.7656 204.453 30.3438 206.948C30.4323 207.333 30.4792 207.734 30.4792 208.146C30.4792 209.13 30.2188 210.208 29.6979 211.302C28.9167 212.948 27.5365 214.62 25.6823 216.021C23.8333 217.417 21.5208 218.536 18.9115 219.135C16.9479 219.589 15.0365 219.802 13.2813 219.802C10.599 219.802 8.27083 219.286 6.63021 218.401C5.80729 217.964 5.15104 217.438 4.66667 216.849C4.18229 216.266 3.85417 215.62 3.67708 214.859L3.67188 214.849C3.58854 214.484 3.54688 214.109 3.54688 213.729C3.54688 212.208 4.23438 210.536 5.63542 208.927C7.03125 207.323 9.10417 205.833 11.6458 204.755L14.974 203.333L11.8125 201.568C10.6771 200.938 9.80208 200.25 9.28125 199.661C9.02083 199.365 8.84896 199.094 8.75521 198.891C8.65625 198.682 8.64063 198.547 8.63542 198.458L8.65625 198.328L8.66667 198.302L6.97396 197.76Z" fill="#4B1615"/>
<path d="M92.5835 203.281L112.516 156.292C114.833 150.823 112.297 144.505 106.818 142.172C101.349 139.839 95.0418 142.391 92.7137 147.859L74.5054 190.833L27.0522 195.88L30.7293 216.703L83.1668 211.62C87.9168 211.161 91.5887 207.682 92.5835 203.281Z" fill="#FBC508"/>
<path d="M92.5833 203.281L94.2135 203.979L114.151 156.984C114.828 155.391 115.151 153.724 115.146 152.089C115.151 147.214 112.286 142.568 107.51 140.536C105.911 139.854 104.245 139.531 102.604 139.531C97.7344 139.531 93.1042 142.401 91.0781 147.167L73.2813 189.177L24.9688 194.313L29.2656 218.63L83.3385 213.391C86.099 213.12 88.5677 211.974 90.4688 210.25C92.3802 208.531 93.7344 206.24 94.3125 203.677L92.5833 203.281L90.849 202.896C90.4375 204.729 89.4583 206.38 88.0938 207.609C86.724 208.839 84.9844 209.661 82.9948 209.849L32.1927 214.776L29.1302 197.448L75.7292 192.49L94.3438 148.552V148.557C95.7969 145.135 99.1146 143.089 102.604 143.083C103.776 143.083 104.964 143.313 106.12 143.807C109.547 145.266 111.599 148.594 111.604 152.089C111.599 153.26 111.37 154.448 110.885 155.599L90.8854 202.734L90.849 202.896L92.5833 203.281Z" fill="#4B1615"/>
<path d="M234.651 167.026C234.651 167.026 235.151 150.661 235.151 142.307C235.151 133.943 223.245 131.312 210.443 135.323C197.646 139.333 200.771 146.151 200.771 146.151L200.87 146.521C153.813 155.245 105.089 155.292 58.0105 146.677L58.1042 146.297C58.1042 146.297 61.2345 139.474 48.4324 135.464C35.6355 131.458 23.7292 134.089 23.7292 142.448C23.7292 150.807 24.2292 167.172 24.2292 167.172V259.51C24.2292 259.51 24.1199 266.448 28.4897 267.182C95.4115 279.385 163.526 279.203 230.458 267.026V267.021C234.75 266.219 234.651 259.37 234.651 259.37V167.026Z" fill="#E9E9E9"/>
<path d="M234.651 167.026L236.427 167.083C236.427 167.073 236.927 150.719 236.927 142.307C236.932 140.568 236.484 138.953 235.667 137.578C234.427 135.505 232.412 134.036 230.016 133.094C227.609 132.151 224.787 131.703 221.714 131.703C218.047 131.703 214.016 132.344 209.912 133.63C205.412 135.042 202.599 136.833 200.885 138.771C199.162 140.698 198.651 142.771 198.656 144.286C198.662 145.771 199.094 146.74 199.162 146.896L200.771 146.151L199.052 146.583L199.146 146.953L200.87 146.521L200.542 144.776C176.979 149.141 152.99 151.328 129 151.328C105.313 151.328 81.6146 149.188 58.323 144.927L58.0105 146.677L59.7344 147.094L59.8282 146.719L58.1042 146.297L59.7136 147.036C59.7813 146.885 60.2084 145.917 60.2084 144.432C60.224 142.911 59.7084 140.844 57.9844 138.911C56.2709 136.974 53.4636 135.177 48.9636 133.771C44.8542 132.484 40.8282 131.849 37.1667 131.849C33.0678 131.854 29.4063 132.635 26.6094 134.354C25.2136 135.219 24.0313 136.339 23.2136 137.719C22.3907 139.094 21.948 140.714 21.9532 142.448C21.9532 150.865 22.4532 167.214 22.4532 167.229L24.2292 167.172H22.4532V259.51H24.2292L22.4584 259.375L22.4532 259.557C22.4584 259.953 22.4688 261.818 23.099 263.859C23.4219 264.885 23.9011 265.974 24.7136 266.927C25.5105 267.885 26.7136 268.698 28.1928 268.938L28.4896 267.182L28.1719 268.932C61.5053 275.01 95.1303 278.026 128.76 278.026C162.865 278.026 196.969 274.927 230.776 268.776C231.62 268.625 232.234 267.885 232.234 267.026V267.021H230.458L230.781 268.771C232.245 268.505 233.427 267.682 234.208 266.724C235.391 265.276 235.875 263.583 236.151 262.193C236.412 260.807 236.427 259.698 236.427 259.411H235.615L236.427 259.443V259.411H235.615L236.427 259.443V167.026H234.651H232.875V259.37H234.651L232.875 259.292V259.411C232.88 259.589 232.849 261.177 232.396 262.615C232.177 263.339 231.854 264.005 231.474 264.453C231.094 264.906 230.719 265.156 230.135 265.276C229.287 265.432 228.682 266.167 228.682 267.021V267.026H230.458L230.141 265.276C196.542 271.391 162.651 274.474 128.76 274.474C95.3438 274.474 61.9323 271.474 28.8073 265.432H28.7865C28.1823 265.323 27.8073 265.078 27.4167 264.63C26.8438 263.974 26.4167 262.786 26.2188 261.714C26.0105 260.641 25.9948 259.703 26 259.557H24.8282L25.9948 259.646L26 259.557H24.8282L25.9948 259.646L26 259.51V167.115C26 167.109 25.9688 166.099 25.9219 164.432C25.7813 159.448 25.5 148.672 25.5 142.448C25.5053 141.292 25.7761 140.365 26.2605 139.536C26.9896 138.318 28.2813 137.286 30.1563 136.547C32.0261 135.807 34.4323 135.401 37.1667 135.401C40.4167 135.401 44.1094 135.974 47.9011 137.167C51.9948 138.443 54.1875 139.974 55.3282 141.271C56.4636 142.568 56.6511 143.63 56.6667 144.432C56.6667 144.813 56.6042 145.135 56.5469 145.339L56.4844 145.557L56.375 145.875L56.2813 146.255C56.1667 146.729 56.2553 147.234 56.5157 147.641C56.7865 148.052 57.2084 148.339 57.6875 148.422C81.1875 152.724 105.099 154.88 129 154.88C153.208 154.88 177.406 152.677 201.188 148.271C201.667 148.182 202.094 147.896 202.354 147.484C202.625 147.073 202.703 146.568 202.589 146.094L202.495 145.724L202.385 145.406H202.391C202.344 145.292 202.208 144.865 202.208 144.286C202.224 143.49 202.412 142.427 203.542 141.125C204.682 139.833 206.875 138.302 210.974 137.021C214.766 135.833 218.464 135.255 221.714 135.255C225.354 135.255 228.422 135.995 230.401 137.234C231.396 137.854 232.125 138.578 232.615 139.401C233.104 140.219 233.375 141.151 233.375 142.307C233.375 146.453 233.25 152.63 233.125 157.76C233.068 160.323 233 162.625 232.953 164.292C232.906 165.953 232.875 166.974 232.875 166.979V167.026H234.651Z" fill="#5A231C"/>
<path d="M58.1041 146.297C57.2344 149.729 49.6667 151.094 41.1875 149.333C32.7187 147.583 26.5573 143.37 27.4271 139.937C28.2916 136.5 35.8646 135.135 44.3385 136.891C52.8021 138.646 58.9687 142.854 58.1041 146.297Z" fill="#5A231C"/>
<path d="M200.771 146.151C201.651 149.588 209.219 150.953 217.688 149.198C226.156 147.437 232.328 143.229 231.453 139.792C230.589 136.359 223.01 134.995 214.542 136.75C206.078 138.505 199.901 142.713 200.771 146.151Z" fill="#5A231C"/>
<path d="M171.031 27.9427C170.88 27.7656 170.734 27.5729 170.589 27.401C176.266 28.724 176.938 28.9583 176.938 28.9583C169.458 16.375 151.203 14.2083 151.203 14.2083C156.49 12.9583 163.193 15.4531 163.193 15.4531C144.734 3.27083 126.984 10.4635 126.984 10.4635C129.531 7.36458 137.193 6.71874 137.193 6.71874C116.953 0.890616 105.432 11.6458 105.432 11.6458C106.266 8.08333 110.245 6.0052 110.245 6.0052C97.1302 10.9375 90.3021 24.4271 90.3021 24.4271C90.3021 24.4271 82.1615 23.8542 77.1667 35.1615C81.1407 39.5208 80.4688 47.6042 75.1459 50.6875C74.3646 54.1823 73.9636 58.7292 74.6719 64.3594C74.6719 64.3594 76.5313 59.6042 78.0157 58.2344C78.0157 58.2344 74.1511 70.4219 77.0052 82.5417C79.8542 94.6615 82.1667 97.2135 82.1667 97.2135C82.1667 97.2135 83.8802 96.5156 85.073 93.4427L85.0834 93.4792C85.3646 92.9115 85.5938 91.9948 85.7813 90.9323C85.8855 90.401 85.974 89.8229 86.0417 89.2031C86.3855 86.4271 86.5 83.4896 86.5 83.4896C86.5 83.9115 87.8073 72.4948 87.8073 72.4948C87.9896 74.8177 89.9375 76.7135 89.9375 76.7135C89.474 74.9323 91.073 68.6979 93.0261 62.3958C94.2448 58.5 94.3907 54.6615 94.3594 52.6042C96.9219 55.1354 106.135 63.2396 119.109 62.7656C119.109 62.7656 114.438 59.6823 113.495 58.099C113.495 58.099 124.573 62.2969 134.938 61.349C134.938 61.349 127.021 58.0208 125.042 54.375C125.042 54.375 146.807 64.6719 155.99 63.0052C155.99 63.0052 152.193 61.026 150.453 57.8594C150.453 57.8594 169.839 58.651 170.87 67.0521C170.87 67.0521 170.797 82.8958 171.635 84.9635V86.2708C171.635 95.625 175.667 97.2135 175.667 97.2135C175.667 97.2135 180.786 62.1094 181.63 50.5729C182.651 36.6927 174.307 30.0208 171.031 27.9427Z" fill="#4B1615"/>
<path d="M76.3958 65.026L76.1042 55.6093C75.1198 26.8698 97.5677 2.8333 126.255 1.83851C154.948 0.890592 178.969 23.3958 179.943 52.1146L180.255 61.526L76.3958 65.026Z" fill="#FBC508"/>
<mask id="mask3_85_126" style="mask-type:luminance" maskUnits="userSpaceOnUse" x="74" y="0" width="109" height="68">
<path d="M74.2241 0H182.224V67.8802H74.2241V0Z" fill="white"/>
</mask>
<g mask="url(#mask3_85_126)">
<path d="M76.3961 65.026L78.1722 64.9688L77.8753 55.5469V55.5417C77.8544 54.9531 77.844 54.3698 77.844 53.7917C77.844 26.8229 99.193 4.55208 126.318 3.61458C126.88 3.59375 127.438 3.58854 128 3.58854C154.959 3.58854 177.245 25 178.172 52.1719L178.422 59.8125L76.3336 63.25L76.3961 65.026L76.4534 66.8021L182.084 63.2448L181.714 52.0521C180.724 22.9583 156.875 0.03125 128 0.03125C127.401 0.03125 126.802 0.0416673 126.198 0.0572913C97.1565 1.07292 74.2972 24.9063 74.2972 53.7917C74.2919 54.4115 74.3076 55.0365 74.3284 55.6667V55.6563L74.6774 66.8646L76.4534 66.8021L76.3961 65.026Z" fill="#4B1615"/>
</g>
<path d="M69.8022 71.2812L185.281 67.4114L185.063 61.3229L69.5991 65.2083L69.8022 71.2812Z" fill="#FBC508"/>
<path d="M69.8021 71.2813L69.8646 73.0573L187.115 69.125L186.771 59.4844L67.7656 63.4896L68.0885 73.1198L69.8646 73.0573L69.8021 71.2813L71.5781 71.224L71.4323 66.9167L183.354 63.1615L183.438 65.6927L69.7448 69.5052L69.8021 71.2813Z" fill="#4B1615"/>
<path d="M155.026 9.25519L155.427 20.7448Z" fill="#FBC508"/>
<path d="M153.255 9.31769L153.651 20.8073L157.203 20.6875L156.802 9.19269" fill="#4B1615"/>
<path d="M146.062 5.70312L146.922 31.8646Z" fill="#FBC508"/>
<path d="M144.292 5.76042L145.156 31.9167L148.698 31.8021L147.839 5.64062" fill="#4B1615"/>
<path d="M137.094 2.59894L138.177 35.2292Z" fill="#FBC508"/>
<path d="M135.323 2.65621L136.401 35.2916L139.953 35.1718L138.87 2.54163" fill="#4B1615"/>
<path d="M100.693 11.0938L101.089 22.5469Z" fill="#FBC508"/>
<path d="M98.9219 11.151L99.3125 22.6042L102.865 22.4792L102.469 11.0312" fill="#4B1615"/>
<path d="M109.365 4.54688L110.318 33.099Z" fill="#FBC508"/>
<path d="M107.589 4.60935L108.542 33.1562L112.094 33.0364L111.141 4.48956" fill="#4B1615"/>
<path d="M118.172 3.22394L119.266 35.8854Z" fill="#FBC508"/>
<path d="M116.396 3.28642L117.495 35.9427L121.042 35.8229L119.943 3.16663" fill="#4B1615"/>
<path d="M127.615 2.71875L129.078 46.099Z" fill="#FBC508"/>
<path d="M125.844 2.78123L127.302 46.1562L130.849 46.0364L129.391 2.66144" fill="#4B1615"/>
</svg>
